<?xml version="1.0" encoding="utf-8"?>
<!DOCTYPE svg>
<svg version="1.1" xmlns="http://www.w3.org/2000/svg" viewBox="-21 -21 42 42" width="100" height="100">
  <!-- <title>Smiling face</title>
  <circle r="20" fill="yellow" stroke="black"/>
  <ellipse rx="2.5" ry="4" cx="-6" cy="-7" fill="black"/>
  <ellipse rx="2.5" ry="4" cx="6" cy="-7" fill="black"/>
  <path stroke="black" d="M -12,5 A 13.5,13.5,0 0,0 12,5 A 13,13,0 0,1 -12,5"/> -->
  <!-- <rect x="0" y="0" width="50" height="75" stroke="black" stroke-width="5" /> -->

  <!-- <ellipse cx="6" cy="7" rx="2.5" ry="4" fill="transparent" stroke-width="3" /> -->
  <!-- <path d="M 10 10 H 50 V 50 L 10 10" /> -->
  <!-- <path d="M 10 10 H 90 V 90 H 0 Z" /> -->
  <polyline points="0, 0 1, 1 2, 2 3, 4 4, 3 5, 6 6, 5" fill="transparent" stroke="red" stroke-width="1"/>
  <!-- <path d="M 10 10 h 80 v 80 h -80 Z" /> -->
  <!-- <circle cx="10" cy="10" r="2" fill="red" /> -->
</svg>